<?xml version="1.0" encoding="UTF-8" standalone="no"?>
<!DOCTYPE svg PUBLIC "-//W3C//DTD SVG 1.1//EN"
 "http://www.w3.org/Graphics/SVG/1.1/DTD/svg11.dtd">
<!-- Generated by graphviz version 2.38.0 (20140413.2041)
 -->
<!-- Title: graph Pages: 1 -->
<svg width="1367pt" height="1232pt"
 viewBox="0.00 0.00 1366.96 1231.52" xmlns="http://www.w3.org/2000/svg" xmlns:xlink="http://www.w3.org/1999/xlink">
<g id="graph0" class="graph" transform="scale(1 1) rotate(0) translate(4 1227.52)">
<title>graph</title>
<polygon fill="white" stroke="none" points="-4,4 -4,-1227.52 1362.96,-1227.52 1362.96,4 -4,4"/>
<!-- openpnp -->
<g id="node1" class="node"><title>openpnp</title>
<ellipse fill="none" stroke="black" cx="1027.02" cy="-1055.44" rx="42.7926" ry="18"/>
<text text-anchor="middle" x="1027.02" y="-1051.74" font-family="Times New Roman,serif" font-size="14.00">openpnp</text>
</g>
<!-- model -->
<g id="node2" class="node"><title>model</title>
<ellipse fill="none" stroke="black" cx="812.025" cy="-43.9502" rx="33.2948" ry="18"/>
<text text-anchor="middle" x="812.025" y="-40.2502" font-family="Times New Roman,serif" font-size="14.00">model</text>
</g>
<!-- openpnp&#45;&gt;model -->
<g id="edge1" class="edge"><title>openpnp&#45;&gt;model</title>
<path fill="none" stroke="black" stroke-width="3" d="M1023.2,-1037.46C997.478,-916.441 849.702,-221.208 818.009,-72.1032"/>
<polygon fill="black" stroke="black" stroke-width="3" points="821.354,-71.0065 815.851,-61.9527 814.507,-72.4619 821.354,-71.0065"/>
</g>
<!-- gui -->
<g id="node3" class="node"><title>gui</title>
<ellipse fill="none" stroke="black" cx="1224.56" cy="-611.761" rx="27" ry="18"/>
<text text-anchor="middle" x="1224.56" y="-608.061" font-family="Times New Roman,serif" font-size="14.00">gui</text>
</g>
<!-- openpnp&#45;&gt;gui -->
<g id="edge2" class="edge"><title>openpnp&#45;&gt;gui</title>
<path fill="none" stroke="black" stroke-width="2" d="M1035.01,-1037.5C1065.67,-968.642 1175.91,-721.048 1212.59,-638.648"/>
<polygon fill="black" stroke="black" stroke-width="2" points="1215.82,-640 1216.69,-629.441 1209.43,-637.153 1215.82,-640"/>
</g>
<!-- logging -->
<g id="node4" class="node"><title>logging</title>
<ellipse fill="none" stroke="black" cx="1172.95" cy="-854.596" rx="37.0935" ry="18"/>
<text text-anchor="middle" x="1172.95" y="-850.896" font-family="Times New Roman,serif" font-size="14.00">logging</text>
</g>
<!-- openpnp&#45;&gt;logging -->
<g id="edge3" class="edge"><title>openpnp&#45;&gt;logging</title>
<path fill="none" stroke="black" stroke-width="2" d="M1039.72,-1037.97C1065.61,-1002.33 1124.61,-921.128 1154.65,-879.787"/>
<polygon fill="black" stroke="black" stroke-width="2" points="1157.55,-881.749 1160.59,-871.601 1151.88,-877.634 1157.55,-881.749"/>
</g>
<!-- util -->
<g id="node5" class="node"><title>util</title>
<ellipse fill="none" stroke="black" cx="565.125" cy="-1205.52" rx="27" ry="18"/>
<text text-anchor="middle" x="565.125" y="-1201.82" font-family="Times New Roman,serif" font-size="14.00">util</text>
</g>
<!-- openpnp&#45;&gt;util -->
<g id="edge4" class="edge"><title>openpnp&#45;&gt;util</title>
<path fill="none" stroke="black" d="M993.059,-1066.48C907.674,-1094.22 684.786,-1166.64 599.239,-1194.44"/>
<polygon fill="black" stroke="black" points="597.935,-1191.18 589.506,-1197.6 600.098,-1197.84 597.935,-1191.18"/>
</g>
<!-- model&#45;&gt;gui -->
<g id="edge33" class="edge"><title>model&#45;&gt;gui</title>
<path fill="none" stroke="black" stroke-width="0.2" d="M821.73,-61.4648C874.896,-144.09 1129.04,-494.207 1203.88,-588.388"/>
<polygon fill="black" stroke="black" stroke-width="0.2" points="1201.17,-590.597 1210.16,-596.202 1206.63,-586.214 1201.17,-590.597"/>
</g>
<!-- model&#45;&gt;util -->
<g id="edge28" class="edge"><title>model&#45;&gt;util</title>
<path fill="none" stroke="black" stroke-width="1.86047" d="M806.332,-61.81C771.808,-193.513 597.366,-1013.54 568.842,-1177.15"/>
<polygon fill="black" stroke="black" stroke-width="1.86047" points="565.33,-1176.92 567.111,-1187.37 572.232,-1178.09 565.33,-1176.92"/>
</g>
<!-- spi -->
<g id="node7" class="node"><title>spi</title>
<ellipse fill="none" stroke="black" cx="329.016" cy="-94.7165" rx="27" ry="18"/>
<text text-anchor="middle" x="329.016" y="-91.0165" font-family="Times New Roman,serif" font-size="14.00">spi</text>
</g>
<!-- model&#45;&gt;spi -->
<g id="edge30" class="edge"><title>model&#45;&gt;spi</title>
<path fill="none" stroke="black" stroke-width="2.23256" d="M778.827,-43.8058C691.286,-48.8508 454.725,-73.6662 364.57,-87.2013"/>
<polygon fill="black" stroke="black" stroke-width="2.23256" points="363.913,-83.7613 354.569,-88.7541 364.987,-90.6785 363.913,-83.7613"/>
</g>
<!-- ConfigurationListener -->
<g id="node9" class="node"><title>ConfigurationListener</title>
<ellipse fill="none" stroke="black" cx="1027.02" cy="-168.08" rx="89.0842" ry="18"/>
<text text-anchor="middle" x="1027.02" y="-164.38" font-family="Times New Roman,serif" font-size="14.00">ConfigurationListener</text>
</g>
<!-- model&#45;&gt;ConfigurationListener -->
<g id="edge31" class="edge"><title>model&#45;&gt;ConfigurationListener</title>
<path fill="none" stroke="black" stroke-width="0.372093" d="M835.033,-57.2343C871.721,-78.4157 943.875,-120.074 988.525,-145.853"/>
<polygon fill="black" stroke="black" stroke-width="0.372093" points="986.931,-148.974 997.341,-150.943 990.431,-142.911 986.931,-148.974"/>
</g>
<!-- machine -->
<g id="node13" class="node"><title>machine</title>
<ellipse fill="none" stroke="black" cx="43.5461" cy="-735.891" rx="40.0939" ry="18"/>
<text text-anchor="middle" x="43.5461" y="-732.191" font-family="Times New Roman,serif" font-size="14.00">machine</text>
</g>
<!-- model&#45;&gt;machine -->
<g id="edge29" class="edge"><title>model&#45;&gt;machine</title>
<path fill="none" stroke="black" stroke-width="0.372093" d="M792.28,-58.6992C685.576,-146.847 179.233,-602.62 66.0055,-712.219"/>
<polygon fill="black" stroke="black" stroke-width="0.372093" points="63.5464,-709.729 58.8328,-719.217 68.4348,-714.739 63.5464,-709.729"/>
</g>
<!-- Scripting -->
<g id="node15" class="node"><title>Scripting</title>
<ellipse fill="none" stroke="black" cx="43.5461" cy="-487.631" rx="43.5923" ry="18"/>
<text text-anchor="middle" x="43.5461" y="-483.931" font-family="Times New Roman,serif" font-size="14.00">Scripting</text>
</g>
<!-- model&#45;&gt;Scripting -->
<g id="edge32" class="edge"><title>model&#45;&gt;Scripting</title>
<path fill="none" stroke="black" stroke-width="0.2" d="M789.026,-57.2287C679.4,-120.521 209.782,-391.655 78.0337,-467.72"/>
<polygon fill="black" stroke="black" stroke-width="0.2" points="76.0516,-464.823 69.1414,-472.854 79.5516,-470.885 76.0516,-464.823"/>
</g>
<!-- gui&#45;&gt;model -->
<g id="edge11" class="edge"><title>gui&#45;&gt;model</title>
<path fill="none" stroke="black" stroke-width="3.55039" d="M1215.06,-594.559C1162.46,-512.703 908.852,-163.296 833.245,-68.0026"/>
<polygon fill="black" stroke="black" stroke-width="3.55039" points="835.882,-65.6962 826.896,-60.0832 830.42,-70.0747 835.882,-65.6962"/>
</g>
<!-- gui&#45;&gt;logging -->
<g id="edge14" class="edge"><title>gui&#45;&gt;logging</title>
<path fill="none" stroke="black" stroke-width="0.2" d="M1220.77,-629.618C1211.88,-671.441 1189.65,-776.013 1178.92,-826.478"/>
<polygon fill="black" stroke="black" stroke-width="0.2" points="1175.47,-825.875 1176.82,-836.384 1182.32,-827.33 1175.47,-825.875"/>
</g>
<!-- gui&#45;&gt;util -->
<g id="edge9" class="edge"><title>gui&#45;&gt;util</title>
<path fill="none" stroke="black" stroke-width="0.604651" d="M1206.04,-625.299C1111.7,-702.479 686.096,-1085.54 586.144,-1183"/>
<polygon fill="black" stroke="black" stroke-width="0.604651" points="583.678,-1180.51 579.006,-1190.02 588.588,-1185.5 583.678,-1180.51"/>
</g>
<!-- events -->
<g id="node6" class="node"><title>events</title>
<ellipse fill="none" stroke="black" cx="565.125" cy="-18" rx="33.5952" ry="18"/>
<text text-anchor="middle" x="565.125" y="-14.3" font-family="Times New Roman,serif" font-size="14.00">events</text>
</g>
<!-- gui&#45;&gt;events -->
<g id="edge10" class="edge"><title>gui&#45;&gt;events</title>
<path fill="none" stroke="black" stroke-width="0.2" d="M1208.26,-597.084C1119.74,-517.377 696.815,-136.574 589.782,-40.2017"/>
<polygon fill="black" stroke="black" stroke-width="0.2" points="592.124,-37.6004 582.35,-33.5101 587.44,-42.8024 592.124,-37.6004"/>
</g>
<!-- gui&#45;&gt;spi -->
<g id="edge8" class="edge"><title>gui&#45;&gt;spi</title>
<path fill="none" stroke="black" stroke-width="1.10078" d="M1206.11,-598.607C1093.94,-526.976 504.178,-186.293 360.554,-109.869"/>
<polygon fill="black" stroke="black" stroke-width="1.10078" points="361.849,-106.595 351.371,-105.026 358.584,-112.787 361.849,-106.595"/>
</g>
<!-- Main -->
<g id="node8" class="node"><title>Main</title>
<ellipse fill="none" stroke="black" cx="812.025" cy="-1179.57" rx="28.6953" ry="18"/>
<text text-anchor="middle" x="812.025" y="-1175.87" font-family="Times New Roman,serif" font-size="14.00">Main</text>
</g>
<!-- gui&#45;&gt;Main -->
<g id="edge7" class="edge"><title>gui&#45;&gt;Main</title>
<path fill="none" stroke="black" stroke-width="0.2" d="M1212.66,-628.143C1154.5,-708.196 900.137,-1058.3 829.994,-1154.84"/>
<polygon fill="black" stroke="black" stroke-width="0.2" points="827.021,-1152.98 823.975,-1163.13 832.684,-1157.09 827.021,-1152.98"/>
</g>
<!-- gui&#45;&gt;ConfigurationListener -->
<g id="edge12" class="edge"><title>gui&#45;&gt;ConfigurationListener</title>
<path fill="none" stroke="black" stroke-width="0.2" d="M1216.82,-594.369C1186.59,-526.474 1076.38,-278.937 1039.3,-195.643"/>
<polygon fill="black" stroke="black" stroke-width="0.2" points="1042.41,-194.035 1035.15,-186.323 1036.02,-196.882 1042.41,-194.035"/>
</g>
<!-- Translations -->
<g id="node10" class="node"><title>Translations</title>
<ellipse fill="none" stroke="black" cx="1172.95" cy="-368.927" rx="55.4913" ry="18"/>
<text text-anchor="middle" x="1172.95" y="-365.227" font-family="Times New Roman,serif" font-size="14.00">Translations</text>
</g>
<!-- gui&#45;&gt;Translations -->
<g id="edge13" class="edge"><title>gui&#45;&gt;Translations</title>
<path fill="none" stroke="black" stroke-width="0.2" d="M1220.77,-593.905C1211.88,-552.082 1189.65,-447.51 1178.92,-397.045"/>
<polygon fill="black" stroke="black" stroke-width="0.2" points="1182.32,-396.193 1176.82,-387.139 1175.47,-397.648 1182.32,-396.193"/>
</g>
<!-- imgur -->
<g id="node11" class="node"><title>imgur</title>
<ellipse fill="none" stroke="black" cx="1327.76" cy="-611.761" rx="31.3957" ry="18"/>
<text text-anchor="middle" x="1327.76" y="-608.061" font-family="Times New Roman,serif" font-size="14.00">imgur</text>
</g>
<!-- gui&#45;&gt;imgur -->
<g id="edge15" class="edge"><title>gui&#45;&gt;imgur</title>
<path fill="none" stroke="black" stroke-width="0.2" d="M1251.68,-611.761C1262.3,-611.761 1274.73,-611.761 1286.42,-611.761"/>
<polygon fill="black" stroke="black" stroke-width="0.2" points="1286.44,-615.262 1296.44,-611.761 1286.44,-608.262 1286.44,-615.262"/>
</g>
<!-- CameraListener -->
<g id="node12" class="node"><title>CameraListener</title>
<ellipse fill="none" stroke="black" cx="144.523" cy="-260.835" rx="67.6881" ry="18"/>
<text text-anchor="middle" x="144.523" y="-257.135" font-family="Times New Roman,serif" font-size="14.00">CameraListener</text>
</g>
<!-- gui&#45;&gt;CameraListener -->
<g id="edge16" class="edge"><title>gui&#45;&gt;CameraListener</title>
<path fill="none" stroke="black" stroke-width="0.2" d="M1200.23,-603.856C1063.65,-559.477 391.433,-341.061 197.179,-277.944"/>
<polygon fill="black" stroke="black" stroke-width="0.2" points="198.078,-274.556 187.486,-274.794 195.915,-281.213 198.078,-274.556"/>
</g>
<!-- util&#45;&gt;model -->
<g id="edge41" class="edge"><title>util&#45;&gt;model</title>
<path fill="none" stroke="black" stroke-width="4.3871" d="M570.818,-1187.66C605.342,-1055.96 779.783,-235.934 808.307,-72.3281"/>
<polygon fill="black" stroke="black" stroke-width="4.3871" points="812.153,-72.6072 810.039,-62.1065 804.584,-71.3248 812.153,-72.6072"/>
</g>
<!-- util&#45;&gt;gui -->
<g id="edge45" class="edge"><title>util&#45;&gt;gui</title>
<path fill="none" stroke="black" stroke-width="0.387097" d="M583.652,-1191.99C677.99,-1114.81 1103.59,-731.744 1203.54,-634.289"/>
<polygon fill="black" stroke="black" stroke-width="0.387097" points="1206.01,-636.774 1210.68,-627.265 1201.1,-631.785 1206.01,-636.774"/>
</g>
<!-- util&#45;&gt;spi -->
<g id="edge42" class="edge"><title>util&#45;&gt;spi</title>
<path fill="none" stroke="black" stroke-width="1.54839" d="M563.157,-1187.23C542.112,-1057.71 376.853,-279.512 337.264,-122.365"/>
<polygon fill="black" stroke="black" stroke-width="1.54839" points="340.616,-121.346 334.737,-112.532 333.836,-123.088 340.616,-121.346"/>
</g>
<!-- util&#45;&gt;Main -->
<g id="edge43" class="edge"><title>util&#45;&gt;Main</title>
<path fill="none" stroke="black" stroke-width="0.2" d="M592.017,-1202.7C635.89,-1198.09 723.02,-1188.93 773.47,-1183.62"/>
<polygon fill="black" stroke="black" stroke-width="0.2" points="774.07,-1187.08 783.649,-1182.56 773.338,-1180.12 774.07,-1187.08"/>
</g>
<!-- util&#45;&gt;machine -->
<g id="edge44" class="edge"><title>util&#45;&gt;machine</title>
<path fill="none" stroke="black" stroke-width="0.258065" d="M551.46,-1189.88C482.174,-1120.18 170.164,-838.918 72.6865,-757.812"/>
<polygon fill="black" stroke="black" stroke-width="0.258065" points="74.6624,-754.905 64.7213,-751.241 70.2077,-760.304 74.6624,-754.905"/>
</g>
<!-- capture -->
<g id="node16" class="node"><title>capture</title>
<ellipse fill="none" stroke="black" cx="329.016" cy="-1128.81" rx="37.8943" ry="18"/>
<text text-anchor="middle" x="329.016" y="-1125.11" font-family="Times New Roman,serif" font-size="14.00">capture</text>
</g>
<!-- util&#45;&gt;capture -->
<g id="edge40" class="edge"><title>util&#45;&gt;capture</title>
<path fill="none" stroke="black" stroke-width="1.29032" d="M540.746,-1197.6C500.402,-1184.49 419.323,-1158.15 370.037,-1142.14"/>
<polygon fill="black" stroke="black" stroke-width="1.29032" points="370.919,-1138.74 360.327,-1138.98 368.756,-1145.4 370.919,-1138.74"/>
</g>
<!-- events&#45;&gt;model -->
<g id="edge5" class="edge"><title>events&#45;&gt;model</title>
<path fill="none" stroke="black" stroke-width="6.4" d="M598.423,-21.4998C642.569,-26.1397 720.536,-34.3344 769.071,-39.4356"/>
<polygon fill="black" stroke="black" stroke-width="6.4" points="768.724,-45.0299 779.254,-40.5059 769.894,-33.8912 768.724,-45.0299"/>
</g>
<!-- events&#45;&gt;spi -->
<g id="edge6" class="edge"><title>events&#45;&gt;spi</title>
<path fill="none" stroke="black" stroke-width="1.6" d="M536.173,-27.407C492.464,-41.609 409.794,-68.47 363.192,-83.6119"/>
<polygon fill="black" stroke="black" stroke-width="1.6" points="361.975,-80.3272 353.546,-86.7461 364.138,-86.9846 361.975,-80.3272"/>
</g>
<!-- spi&#45;&gt;model -->
<g id="edge35" class="edge"><title>spi&#45;&gt;model</title>
<path fill="none" stroke="black" stroke-width="3.648" d="M356.017,-95.1975C436.52,-91.1211 675.224,-66.2594 771.295,-52.2313"/>
<polygon fill="black" stroke="black" stroke-width="3.648" points="771.845,-55.6881 781.214,-50.7425 770.806,-48.7657 771.845,-55.6881"/>
</g>
<!-- spi&#45;&gt;gui -->
<g id="edge34" class="edge"><title>spi&#45;&gt;gui</title>
<path fill="none" stroke="black" stroke-width="0.704" d="M347.471,-107.871C459.643,-179.502 1049.4,-520.185 1193.03,-596.609"/>
<polygon fill="black" stroke="black" stroke-width="0.704" points="1191.73,-599.883 1202.21,-601.452 1195,-593.691 1191.73,-599.883"/>
</g>
<!-- spi&#45;&gt;util -->
<g id="edge39" class="edge"><title>spi&#45;&gt;util</title>
<path fill="none" stroke="black" stroke-width="0.2" d="M330.983,-113.005C352.028,-242.534 517.288,-1020.73 556.876,-1177.87"/>
<polygon fill="black" stroke="black" stroke-width="0.2" points="553.524,-1178.89 559.403,-1187.71 560.304,-1177.15 553.524,-1178.89"/>
</g>
<!-- spi&#45;&gt;ConfigurationListener -->
<g id="edge38" class="edge"><title>spi&#45;&gt;ConfigurationListener</title>
<path fill="none" stroke="black" stroke-width="0.2" d="M355.951,-97.5475C451.624,-107.603 777.879,-141.894 937.546,-158.676"/>
<polygon fill="black" stroke="black" stroke-width="0.2" points="937.507,-162.191 947.818,-159.755 938.239,-155.229 937.507,-162.191"/>
</g>
<!-- spi&#45;&gt;CameraListener -->
<g id="edge36" class="edge"><title>spi&#45;&gt;CameraListener</title>
<path fill="none" stroke="black" stroke-width="0.2" d="M312.643,-109.458C280.863,-138.073 210.533,-201.398 171.663,-236.397"/>
<polygon fill="black" stroke="black" stroke-width="0.2" points="168.961,-234.12 163.872,-243.413 173.645,-239.322 168.961,-234.12"/>
</g>
<!-- spi&#45;&gt;machine -->
<g id="edge37" class="edge"><title>spi&#45;&gt;machine</title>
<path fill="none" stroke="black" stroke-width="0.416" d="M318.87,-111.549C273.882,-198.802 95.3356,-599.439 52.5983,-708.454"/>
<polygon fill="black" stroke="black" stroke-width="0.416" points="49.3295,-707.203 49.001,-717.793 55.8616,-709.719 49.3295,-707.203"/>
</g>
<!-- machine&#45;&gt;model -->
<g id="edge20" class="edge"><title>machine&#45;&gt;model</title>
<path fill="none" stroke="black" stroke-width="1.52565" d="M64.476,-720.162C173.745,-629.623 677.265,-176.359 789.738,-67.4555"/>
<polygon fill="black" stroke="black" stroke-width="1.52565" points="792.439,-69.7096 797.149,-60.2193 787.549,-64.701 792.439,-69.7096"/>
</g>
<!-- machine&#45;&gt;gui -->
<g id="edge18" class="edge"><title>machine&#45;&gt;gui</title>
<path fill="none" stroke="black" stroke-width="2.27399" d="M82.8407,-731.761C263.463,-712.777 1012.66,-634.033 1187.82,-615.623"/>
<polygon fill="black" stroke="black" stroke-width="2.27399" points="1188.25,-619.098 1197.83,-614.572 1187.52,-612.136 1188.25,-619.098"/>
</g>
<!-- machine&#45;&gt;util -->
<g id="edge21" class="edge"><title>machine&#45;&gt;util</title>
<path fill="none" stroke="black" stroke-width="0.535908" d="M58.577,-752.909C131.143,-825.488 444.68,-1108.02 538.535,-1185.72"/>
<polygon fill="black" stroke="black" stroke-width="0.535908" points="536.468,-1188.55 546.42,-1192.18 540.906,-1183.14 536.468,-1188.55"/>
</g>
<!-- machine&#45;&gt;events -->
<g id="edge26" class="edge"><title>machine&#45;&gt;events</title>
<path fill="none" stroke="black" stroke-width="0.2" d="M56.1807,-718.501C126.003,-622.399 464.483,-156.522 546.971,-42.9866"/>
<polygon fill="black" stroke="black" stroke-width="0.2" points="549.841,-44.9908 552.887,-34.8433 544.178,-40.8762 549.841,-44.9908"/>
</g>
<!-- machine&#45;&gt;spi -->
<g id="edge19" class="edge"><title>machine&#45;&gt;spi</title>
<path fill="none" stroke="black" stroke-width="1.76222" d="M54.0325,-718.396C99.5946,-629.76 277.485,-230.555 320.018,-122.014"/>
<polygon fill="black" stroke="black" stroke-width="1.76222" points="323.378,-123.028 323.703,-112.438 316.845,-120.514 323.378,-123.028"/>
</g>
<!-- machine&#45;&gt;ConfigurationListener -->
<g id="edge22" class="edge"><title>machine&#45;&gt;ConfigurationListener</title>
<path fill="none" stroke="black" stroke-width="0.2" d="M68.3488,-721.572C200.942,-645.019 826.131,-284.066 988.446,-190.353"/>
<polygon fill="black" stroke="black" stroke-width="0.2" points="990.239,-193.36 997.149,-185.328 986.739,-187.297 990.239,-193.36"/>
</g>
<!-- machine&#45;&gt;Translations -->
<g id="edge27" class="edge"><title>machine&#45;&gt;Translations</title>
<path fill="none" stroke="black" stroke-width="0.2" d="M76.4315,-725.206C236.294,-673.264 932.331,-447.108 1123.95,-384.845"/>
<polygon fill="black" stroke="black" stroke-width="0.2" points="1125.32,-388.081 1133.75,-381.663 1123.16,-381.424 1125.32,-388.081"/>
</g>
<!-- machine&#45;&gt;CameraListener -->
<g id="edge17" class="edge"><title>machine&#45;&gt;CameraListener</title>
<path fill="none" stroke="black" stroke-width="0.2" d="M47.3812,-717.849C62.7357,-645.612 119.845,-376.934 138.549,-288.936"/>
<polygon fill="black" stroke="black" stroke-width="0.2" points="142.028,-289.405 140.684,-278.895 135.181,-287.949 142.028,-289.405"/>
</g>
<!-- vision -->
<g id="node14" class="node"><title>vision</title>
<ellipse fill="none" stroke="black" cx="144.523" cy="-962.688" rx="32.4942" ry="18"/>
<text text-anchor="middle" x="144.523" y="-958.988" font-family="Times New Roman,serif" font-size="14.00">vision</text>
</g>
<!-- machine&#45;&gt;vision -->
<g id="edge23" class="edge"><title>machine&#45;&gt;vision</title>
<path fill="none" stroke="black" stroke-width="0.284852" d="M51.4696,-753.688C69.0921,-793.269 111.621,-888.79 132.521,-935.732"/>
<polygon fill="black" stroke="black" stroke-width="0.284852" points="129.371,-937.263 136.636,-944.974 135.766,-934.415 129.371,-937.263"/>
</g>
<!-- machine&#45;&gt;Scripting -->
<g id="edge24" class="edge"><title>machine&#45;&gt;Scripting</title>
<path fill="none" stroke="black" stroke-width="0.2" d="M43.5461,-717.636C43.5461,-674.774 43.5461,-567.447 43.5461,-516"/>
<polygon fill="black" stroke="black" stroke-width="0.2" points="47.0462,-515.913 43.5461,-505.913 40.0462,-515.913 47.0462,-515.913"/>
</g>
<!-- machine&#45;&gt;capture -->
<g id="edge25" class="edge"><title>machine&#45;&gt;capture</title>
<path fill="none" stroke="black" stroke-width="0.2" d="M55.996,-753.027C101.163,-815.195 256.569,-1029.09 310.447,-1103.25"/>
<polygon fill="black" stroke="black" stroke-width="0.2" points="307.791,-1105.55 316.5,-1111.58 313.454,-1101.43 307.791,-1105.55"/>
</g>
<!-- vision&#45;&gt;model -->
<g id="edge46" class="edge"><title>vision&#45;&gt;model</title>
<path fill="none" stroke="black" stroke-width="0.527704" d="M156.678,-945.957C237.423,-834.822 696.072,-203.545 793.736,-69.1217"/>
<polygon fill="black" stroke="black" stroke-width="0.527704" points="796.593,-71.1442 799.64,-60.9968 790.93,-67.0297 796.593,-71.1442"/>
</g>
<!-- vision&#45;&gt;gui -->
<g id="edge49" class="edge"><title>vision&#45;&gt;gui</title>
<path fill="none" stroke="black" stroke-width="0.2" d="M172.58,-953.572C322.27,-904.935 1026.15,-676.229 1190.29,-622.898"/>
<polygon fill="black" stroke="black" stroke-width="0.2" points="1191.45,-626.201 1199.88,-619.782 1189.29,-619.544 1191.45,-626.201"/>
</g>
<!-- vision&#45;&gt;util -->
<g id="edge48" class="edge"><title>vision&#45;&gt;util</title>
<path fill="none" stroke="black" stroke-width="0.295515" d="M167.136,-975.744C237.969,-1016.64 455.571,-1142.27 535.38,-1188.35"/>
<polygon fill="black" stroke="black" stroke-width="0.295515" points="534,-1191.59 544.41,-1193.56 537.5,-1185.53 534,-1191.59"/>
</g>
<!-- vision&#45;&gt;spi -->
<g id="edge47" class="edge"><title>vision&#45;&gt;spi</title>
<path fill="none" stroke="black" stroke-width="0.274406" d="M148.376,-944.559C171.753,-834.579 294.513,-257.037 323.074,-122.669"/>
<polygon fill="black" stroke="black" stroke-width="0.274406" points="326.528,-123.255 325.183,-112.746 319.681,-121.799 326.528,-123.255"/>
</g>
</g>
</svg>
